<svg id="Layer_1" data-name="Layer 1" xmlns="http://www.w3.org/2000/svg" viewBox="0 0 85 124">
				<defs>
					<style>
						.cls-1 {
							fill: #29abe2;
						}
						
						.cls-2 {
							fill: #fff;
						}
					</style>
				</defs>
				<title>n-logo</title>
				<rect class="cls-1" width="85" height="124" />
				<path class="cls-2" d="M33.14,67.36a30,30,0,0,1,5-4.18,10.46,10.46,0,0,1,5.72-1.46q5.41,0,7.7,3.69a18.31,18.31,0,0,1,2.29,9.73v26.22a2,2,0,0,1-1.67,2.13,23.52,23.52,0,0,1-4.47.68v1.14H68.93v-.94c-.62-.07-1.3-.15-2-.26a15.79,15.79,0,0,1-2-.41,4.67,4.67,0,0,1-1.61-.78,1.53,1.53,0,0,1-.68-1.25V71.09q0-7.07-3.23-11.55a10.73,10.73,0,0,0-9.26-4.47,13.86,13.86,0,0,0-5.41,1.09,21.59,21.59,0,0,0-4.78,2.76A24.64,24.64,0,0,0,36,62.61a37.23,37.23,0,0,0-2.86,3.8"
				/>
				<path class="cls-2" d="M30.53,69.28v32.29a2.67,2.67,0,0,0,.73,1.51,3.11,3.11,0,0,0,1.25.68,7.51,7.51,0,0,0,1.66.26,13.8,13.8,0,0,1,2,.26v1H16.07v-1a13.72,13.72,0,0,0,4.11-.94,2.48,2.48,0,0,0,1.72-2.39V65.16a3.76,3.76,0,0,0-.16-1.25,2.36,2.36,0,0,0-.88-.94l-2.19-1.2a27.19,27.19,0,0,0-2.5-1.2V60L29.8,55.07h.71Z"
				/>
			</svg>